<svg width="25" height="25" viewBox="0 0 25 25" fill="none" xmlns="http://www.w3.org/2000/svg">
<path d="M12.3077 3L3 3C1.89543 3 1 3.89543 1 5V22C1 23.1046 1.89543 24 3 24H20C21.1046 24 22 23.1046 22 22V12.6923" stroke="#2F3238" stroke-width="1.6" stroke-linecap="round"/>
<path d="M11.1318 7.12534L15.3798 5.57901L16.9251 1.33195C16.9606 1.23466 17.0251 1.15062 17.1099 1.09123C17.1947 1.03185 17.2958 1 17.3993 1C17.5028 1 17.6039 1.03185 17.6887 1.09123C17.7735 1.15062 17.838 1.23466 17.8734 1.33195L19.4198 5.58003L23.6679 7.12534C23.7651 7.16077 23.8492 7.22527 23.9086 7.31009C23.968 7.39491 23.9998 7.49595 23.9998 7.59949C23.9998 7.70303 23.968 7.80407 23.9086 7.88889C23.8492 7.97371 23.7651 8.03822 23.6679 8.07364L19.4188 9.61997L17.8734 13.8681C17.838 13.9653 17.7735 14.0494 17.6887 14.1088C17.6039 14.1681 17.5028 14.2 17.3993 14.2C17.2958 14.2 17.1947 14.1681 17.1099 14.1088C17.0251 14.0494 16.9606 13.9653 16.9251 13.8681L15.3788 9.61895L11.1318 8.07364C11.0345 8.03822 10.9504 7.97371 10.891 7.88889C10.8317 7.80407 10.7998 7.70303 10.7998 7.59949C10.7998 7.49595 10.8317 7.39491 10.891 7.31009C10.9504 7.22527 11.0345 7.16077 11.1318 7.12534Z" stroke="#2F3238" stroke-width="1.6" stroke-linecap="round" stroke-linejoin="round"/>
</svg>
