<svg width="24" height="24" viewBox="0 0 24 24" fill="none" xmlns="http://www.w3.org/2000/svg">
<g clip-path="url(#clip0_943_16845)">
<path d="M22.9881 6.16524C22.955 5.98558 22.8844 5.81491 22.781 5.66429C22.6776 5.51368 22.5438 5.38648 22.3881 5.29096L18.9595 8.71953C18.7996 8.88544 18.6079 9.0174 18.3957 9.10754C18.1836 9.19768 17.9556 9.24413 17.7252 9.24413C17.4948 9.24413 17.2667 9.19768 17.0546 9.10754C16.8426 9.0174 16.6508 8.88544 16.4909 8.71953L15.1881 7.55381C14.874 7.23336 14.698 6.80253 14.698 6.35381C14.698 5.9051 14.874 5.47426 15.1881 5.15381L18.6167 1.72524C18.5419 1.54959 18.4295 1.39252 18.2872 1.26513C18.1451 1.13775 17.9766 1.04318 17.7938 0.988098C16.5975 0.749538 15.3583 0.851654 14.2172 1.28282C13.0761 1.71399 12.079 2.45688 11.3394 3.42693C10.5999 4.39697 10.1475 5.55518 10.0338 6.76972C9.92739 7.90742 10.1222 9.05171 10.5967 10.0882L1.39664 19.2883C0.717489 19.9675 0.728752 21.072 1.42161 21.7371L2.38294 22.6601C3.05348 23.3038 4.11488 23.2957 4.77572 22.6421L14.0814 13.4372C15.0879 13.8528 16.1843 14.0109 17.2706 13.8945C18.472 13.7657 19.614 13.3063 20.5698 12.5672C21.5255 11.8282 22.2575 10.8385 22.6845 9.70831C23.1114 8.5781 23.2164 7.35161 22.9881 6.16524Z" stroke="#98A2B3" stroke-width="1.6" stroke-linecap="round" stroke-linejoin="round"/>
</g>
<defs>
<clipPath id="clip0_943_16845">
<rect width="24" height="24" fill="white"/>
</clipPath>
</defs>
</svg>
