<svg width="16" height="16" viewBox="0 0 16 16" fill="none" xmlns="http://www.w3.org/2000/svg">
<path d="M14.5717 2.14503H11.5717V1.00217C11.5717 0.9236 11.5074 0.859314 11.4289 0.859314H10.4289C10.3503 0.859314 10.286 0.9236 10.286 1.00217V2.14503H5.71457V1.00217C5.71457 0.9236 5.65028 0.859314 5.57171 0.859314H4.57171C4.49314 0.859314 4.42885 0.9236 4.42885 1.00217V2.14503H1.42885C1.11278 2.14503 0.857422 2.40039 0.857422 2.71646V14.5736C0.857422 14.8897 1.11278 15.145 1.42885 15.145H14.5717C14.8878 15.145 15.1431 14.8897 15.1431 14.5736V2.71646C15.1431 2.40039 14.8878 2.14503 14.5717 2.14503ZM13.8574 13.8593H2.14314V7.0736H13.8574V13.8593ZM2.14314 5.85931V3.43074H4.42885V4.28789C4.42885 4.36646 4.49314 4.43074 4.57171 4.43074H5.57171C5.65028 4.43074 5.71457 4.36646 5.71457 4.28789V3.43074H10.286V4.28789C10.286 4.36646 10.3503 4.43074 10.4289 4.43074H11.4289C11.5074 4.43074 11.5717 4.36646 11.5717 4.28789V3.43074H13.8574V5.85931H2.14314Z" fill="#595959"/>
</svg>
