<svg width="25" height="24" viewBox="0 0 25 24" fill="none" xmlns="http://www.w3.org/2000/svg">
<path d="M12.8661 8.86329C13.0373 8.75471 13.1983 8.63087 13.3471 8.49329C13.7623 8.11086 14.0575 7.6162 14.1971 7.06929C14.3143 6.7302 14.3213 6.36272 14.2169 6.01947C14.1125 5.67621 13.9022 5.37477 13.6161 5.15829C13.3062 4.9393 12.9346 4.82444 12.5551 4.83029H10.1651L10.0891 5.15829L9.11914 9.30929H11.4081C11.9263 9.29978 12.4314 9.14527 12.8661 8.86329Z" stroke="#666666" stroke-linecap="round" stroke-linejoin="round"/>
<path d="M2.05957 18.4832L6.03357 1.49219H14.3446C16.8346 1.49219 19.6096 3.28219 18.7746 7.06819C18.4516 8.63469 17.5868 10.0372 16.3321 11.0292C15.0775 12.0212 13.5133 12.5392 11.9146 12.4922H8.43257L6.93857 18.4832H2.05957Z" stroke="#666666" stroke-linecap="round" stroke-linejoin="round"/>
<path d="M21.4292 6.68164C21.9682 7.73237 22.0976 8.94589 21.7922 10.0866C21.4794 11.6287 20.637 13.0128 19.4109 13.999C18.1849 14.9852 16.6525 15.5115 15.0792 15.4866C14.7622 15.4926 11.7882 15.4866 11.4702 15.4866L9.9532 21.5006H5.0752L5.4152 19.9896" stroke="#666666" stroke-linecap="round" stroke-linejoin="round"/>
</svg>
