<svg xmlns="http://www.w3.org/2000/svg" width="16" height="17" viewBox="0 0 16 17" fill="none">
    <path d="M15.0912 3.09464L14.0841 3.88214C12.7109 2.12679 10.5751 1 8.17693 1C4.03586 1 0.684074 4.34821 0.678717 8.49107C0.67336 12.6375 4.03229 16 8.17693 16C11.4144 16 14.1734 13.9464 15.2234 11.0696C15.2501 10.9946 15.2109 10.9107 15.1359 10.8857L14.1234 10.5375C14.0881 10.5254 14.0494 10.5276 14.0157 10.5436C13.982 10.5596 13.9559 10.5882 13.943 10.6232C13.9109 10.7125 13.8751 10.8018 13.8376 10.8893C13.5287 11.6214 13.0859 12.2786 12.5216 12.8429C11.9618 13.4036 11.2991 13.8511 10.5698 14.1607C9.81443 14.4804 9.00907 14.6429 8.1805 14.6429C7.35015 14.6429 6.54657 14.4804 5.79122 14.1607C5.06117 13.8524 4.39822 13.4048 3.83943 12.8429C3.27818 12.2832 2.83119 11.6197 2.52336 10.8893C2.20372 10.1321 2.04122 9.32857 2.04122 8.49822C2.04122 7.66786 2.20372 6.86429 2.52336 6.10714C2.83229 5.375 3.27515 4.71786 3.83943 4.15357C4.40372 3.58929 5.06086 3.14643 5.79122 2.83571C6.54657 2.51607 7.35193 2.35357 8.1805 2.35357C9.01086 2.35357 9.81443 2.51607 10.5698 2.83571C11.2998 3.14401 11.9628 3.59164 12.5216 4.15357C12.6984 4.33036 12.8644 4.51786 13.018 4.71429L11.943 5.55357C11.9217 5.57003 11.9055 5.59215 11.8963 5.6174C11.887 5.64265 11.8851 5.66999 11.8907 5.6963C11.8963 5.7226 11.9092 5.74679 11.9279 5.76608C11.9467 5.78537 11.9704 5.79899 11.9966 5.80536L15.1323 6.57322C15.2216 6.59464 15.3091 6.52679 15.3091 6.43572L15.3234 3.20536C15.3216 3.0875 15.1841 3.02143 15.0912 3.09464Z" fill="black" fill-opacity="0.85"/>
  </svg>