<svg xmlns="http://www.w3.org/2000/svg" width="16" height="16" viewBox="0 0 16 16" fill="none">
    <path d="M15.1022 14.1183L10.4647 9.4808C11.1844 8.55045 11.5737 7.41295 11.5737 6.21652C11.5737 4.78438 11.0147 3.44152 10.004 2.42902C8.9933 1.41652 7.64688 0.859375 6.21652 0.859375C4.78616 0.859375 3.43973 1.4183 2.42902 2.42902C1.41652 3.43973 0.859375 4.78438 0.859375 6.21652C0.859375 7.64688 1.4183 8.9933 2.42902 10.004C3.43973 11.0165 4.78438 11.5737 6.21652 11.5737C7.41295 11.5737 8.54866 11.1844 9.47902 10.4665L14.1165 15.1022C14.1301 15.1158 14.1463 15.1266 14.164 15.134C14.1818 15.1414 14.2009 15.1452 14.2201 15.1452C14.2393 15.1452 14.2584 15.1414 14.2761 15.134C14.2939 15.1266 14.3101 15.1158 14.3237 15.1022L15.1022 14.3254C15.1158 14.3118 15.1266 14.2957 15.134 14.2779C15.1414 14.2602 15.1452 14.2411 15.1452 14.2219C15.1452 14.2026 15.1414 14.1836 15.134 14.1658C15.1266 14.148 15.1158 14.1319 15.1022 14.1183ZM9.04509 9.04509C8.28795 9.80045 7.28438 10.2165 6.21652 10.2165C5.14866 10.2165 4.14509 9.80045 3.38795 9.04509C2.63259 8.28795 2.21652 7.28438 2.21652 6.21652C2.21652 5.14866 2.63259 4.1433 3.38795 3.38795C4.14509 2.63259 5.14866 2.21652 6.21652 2.21652C7.28438 2.21652 8.28973 2.6308 9.04509 3.38795C9.80045 4.14509 10.2165 5.14866 10.2165 6.21652C10.2165 7.28438 9.80045 8.28973 9.04509 9.04509Z" fill="black" fill-opacity="0.45"/>
  </svg>