<svg xmlns="http://www.w3.org/2000/svg" width="16" height="16" viewBox="0 0 16 16" fill="none">
    <path d="M9.125 5.5H6.875C6.59844 5.5 6.375 5.72344 6.375 6V14.5C6.375 14.7766 6.59844 15 6.875 15H9.125C9.40156 15 9.625 14.7766 9.625 14.5V6C9.625 5.72344 9.40156 5.5 9.125 5.5ZM13.9375 1H11.6875C11.4109 1 11.1875 1.22344 11.1875 1.5V14.5C11.1875 14.7766 11.4109 15 11.6875 15H13.9375C14.2141 15 14.4375 14.7766 14.4375 14.5V1.5C14.4375 1.22344 14.2141 1 13.9375 1ZM4.3125 10H2.0625C1.78594 10 1.5625 10.2234 1.5625 10.5V14.5C1.5625 14.7766 1.78594 15 2.0625 15H4.3125C4.58906 15 4.8125 14.7766 4.8125 14.5V10.5C4.8125 10.2234 4.58906 10 4.3125 10Z" fill="#A0D911"/>
  </svg>