<svg xmlns="http://www.w3.org/2000/svg" width="50" height="48" viewBox="0 0 50 48" fill="none">
    <path
        d="M12.2316 32.4791L12.2717 32.517L12.3111 32.4784L13.9859 30.8378L14.028 30.7965L13.9855 30.7556C12.3964 29.2301 11.1807 27.4167 10.3383 25.3146C9.49523 23.211 9.07435 21.1792 9.07435 19.2188C9.07435 17.2583 9.49523 15.2265 10.3383 13.1229C11.1807 11.0208 12.3964 9.20739 13.9855 7.68193L14.028 7.64104L13.9859 7.59972L12.3111 5.9591L12.2717 5.92051L12.2316 5.95842C10.3118 7.77641 8.8873 9.86146 7.95895 12.2134C7.03141 14.5632 6.56725 16.8984 6.56725 19.2188C6.56725 21.5391 7.03141 23.8743 7.95895 26.2241C8.8873 28.576 10.3118 30.6611 12.2316 32.4791ZM16.6349 28.1674L16.6749 28.2037L16.7134 28.1659L18.3882 26.5253L18.4279 26.4864L18.3902 26.4456C17.5024 25.4826 16.78 24.309 16.224 22.924C15.6676 21.5378 15.3908 20.3031 15.3908 19.2188C15.3908 18.0086 15.66 16.7267 16.2002 15.3728C16.7399 14.0198 17.4694 12.894 18.3882 11.994L18.43 11.9531L18.3882 11.9122L16.7134 10.2716L16.6749 10.2338L16.6349 10.2701C15.3519 11.4326 14.4056 12.8388 13.7964 14.488C13.1883 16.1339 12.8837 17.711 12.8837 19.2188C12.8837 20.7265 13.1883 22.3036 13.7964 23.9495C14.4056 25.5987 15.3519 27.0049 16.6349 28.1674ZM16.8105 41.7006L16.7852 41.776H16.8647H19.688H19.729L19.7422 41.7372L21.1645 37.5573H30.4131L31.7879 41.7366L31.8008 41.776H31.8423H34.6655H34.7451L34.7198 41.7006L28.3692 22.7568C28.9026 22.3802 29.3353 21.8975 29.6671 21.3094C30.0075 20.7059 30.1769 20.0084 30.1769 19.2188C30.1769 18.0159 29.748 16.9933 28.8916 16.1544C28.0353 15.3155 26.992 14.8959 25.7651 14.8959C24.5383 14.8959 23.495 15.3155 22.6386 16.1544C21.7823 16.9933 21.3534 18.0159 21.3534 19.2188C21.3534 20.0084 21.5227 20.7059 21.8632 21.3094C22.195 21.8975 22.6276 22.3802 23.1611 22.7568L16.8105 41.7006ZM34.8169 28.1659L34.8559 28.2041L34.8959 28.1669C36.1468 27.0044 37.0848 25.5906 37.7099 23.9264C38.3339 22.2649 38.6466 20.6957 38.6466 19.2188C38.6466 17.7107 38.3339 16.1335 37.7098 14.4875C37.0847 12.8389 36.1467 11.433 34.8959 10.2706L34.8559 10.2334L34.8169 10.2716L33.1421 11.9122L33.1024 11.9511L33.14 11.9919C34.0279 12.9549 34.7502 14.1285 35.3062 15.5135C35.8627 16.8997 36.1395 18.1344 36.1395 19.2188C36.1395 20.4289 35.8703 21.7108 35.3301 23.0647C34.7903 24.4177 34.0608 25.5435 33.1421 26.4435L33.1003 26.4844L33.1421 26.5253L34.8169 28.1659ZM39.2192 32.4784L39.2577 32.5161L39.2976 32.48C41.3136 30.662 42.7626 28.5841 43.6434 26.2468C44.523 23.9126 44.963 21.5698 44.963 19.2188C44.963 16.8984 44.4989 14.5632 43.5713 12.2134C42.6429 9.86146 41.2185 7.77641 39.2986 5.95842L39.2586 5.92051L39.2192 5.9591L37.5444 7.59972L37.5026 7.64062L37.5444 7.68153C39.1017 9.20709 40.3097 11.0208 41.1682 13.1232C42.0271 15.2268 42.4559 17.2585 42.4559 19.2188C42.4559 21.179 42.0271 23.2107 41.1682 25.3143C40.3097 27.4167 39.1017 29.2304 37.5444 30.756L37.5026 30.7969L37.5444 30.8378L39.2192 32.4784ZM22.1122 34.6302L25.7651 23.7117L29.418 34.6302H22.1122Z"
        fill="#0066FF" stroke="#0066FF" stroke-width="0.0741629" />
</svg>