<svg width="43" height="22" viewBox="0 0 43 22" fill="none" xmlns="http://www.w3.org/2000/svg">
<path d="M21.8333 9H16.5C16.2239 9 16 9.22386 16 9.5V12.8333C16 13.1095 16.2239 13.3333 16.5 13.3333H21.8333C22.1095 13.3333 22.3333 13.1095 22.3333 12.8333V9.5C22.3333 9.22386 22.1095 9 21.8333 9Z" stroke="#2C2C2C" stroke-linecap="round" stroke-linejoin="round"/>
<path d="M22.5 11C22.5 11 28.1154 11.3704 30 9" stroke="#2C2C2C" stroke-linecap="round" stroke-linejoin="round"/>
<path d="M22.416 5H20.416C20.1508 5 19.8964 5.10536 19.7089 5.29289C19.5213 5.48043 19.416 5.73479 19.416 6V8.5" stroke="#2C2C2C" stroke-linecap="round" stroke-linejoin="round"/>
<path d="M22.416 17H20.416C20.1508 17 19.8964 16.8947 19.7089 16.7071C19.5213 16.5196 19.416 16.2652 19.416 16V13.5" stroke="#2C2C2C" stroke-linecap="round" stroke-linejoin="round"/>
<path d="M31 17C31 14.7909 29.2091 13 27 13C24.7909 13 23 14.7909 23 17C23 19.2091 24.7909 21 27 21C29.2091 21 31 19.2091 31 17Z" stroke="#2C2C2C" stroke-linecap="round" stroke-linejoin="round"/>
<path d="M42 7C42 3.6864 39.3136 1 36 1C32.6864 1 30 3.6864 30 7C30 10.3136 32.6864 13 36 13C39.3136 13 42 10.3136 42 7Z" stroke="#2C2C2C" stroke-linecap="round" stroke-linejoin="round"/>
<path d="M13 11C13 7.6864 10.3136 5 7 5C3.6864 5 1 7.6864 1 11C1 14.3136 3.6864 17 7 17C10.3136 17 13 14.3136 13 11Z" stroke="#2C2C2C" stroke-linecap="round" stroke-linejoin="round"/>
<path d="M25.416 5C25.416 4.17157 24.7444 3.5 23.916 3.5C23.0876 3.5 22.416 4.17157 22.416 5C22.416 5.82843 23.0876 6.5 23.916 6.5C24.7444 6.5 25.416 5.82843 25.416 5Z" stroke="#2C2C2C" stroke-linecap="round" stroke-linejoin="round"/>
<path d="M33.2993 5.25V4.626H34.5473V9H33.8573V5.25H33.2993ZM35.487 6.756C35.487 6.064 35.603 5.524 35.835 5.136C36.071 4.744 36.475 4.548 37.047 4.548C37.619 4.548 38.021 4.744 38.253 5.136C38.489 5.524 38.607 6.064 38.607 6.756C38.607 7.456 38.489 8.004 38.253 8.4C38.021 8.792 37.619 8.988 37.047 8.988C36.475 8.988 36.071 8.792 35.835 8.4C35.603 8.004 35.487 7.456 35.487 6.756ZM37.935 6.756C37.935 6.432 37.913 6.158 37.869 5.934C37.829 5.71 37.745 5.528 37.617 5.388C37.489 5.244 37.299 5.172 37.047 5.172C36.795 5.172 36.605 5.244 36.477 5.388C36.349 5.528 36.263 5.71 36.219 5.934C36.179 6.158 36.159 6.432 36.159 6.756C36.159 7.092 36.179 7.374 36.219 7.602C36.259 7.83 36.343 8.014 36.471 8.154C36.603 8.294 36.795 8.364 37.047 8.364C37.299 8.364 37.489 8.294 37.617 8.154C37.749 8.014 37.835 7.83 37.875 7.602C37.915 7.374 37.935 7.092 37.935 6.756Z" fill="#2C2C2C"/>
<path d="M4.2993 9.25V8.626H5.5473V13H4.8573V9.25H4.2993ZM6.48695 10.756C6.48695 10.064 6.60295 9.524 6.83495 9.136C7.07095 8.744 7.47495 8.548 8.04695 8.548C8.61895 8.548 9.02095 8.744 9.25295 9.136C9.48895 9.524 9.60695 10.064 9.60695 10.756C9.60695 11.456 9.48895 12.004 9.25295 12.4C9.02095 12.792 8.61895 12.988 8.04695 12.988C7.47495 12.988 7.07095 12.792 6.83495 12.4C6.60295 12.004 6.48695 11.456 6.48695 10.756ZM8.93495 10.756C8.93495 10.432 8.91295 10.158 8.86895 9.934C8.82895 9.71 8.74495 9.528 8.61695 9.388C8.48895 9.244 8.29895 9.172 8.04695 9.172C7.79495 9.172 7.60495 9.244 7.47695 9.388C7.34895 9.528 7.26295 9.71 7.21895 9.934C7.17895 10.158 7.15895 10.432 7.15895 10.756C7.15895 11.092 7.17895 11.374 7.21895 11.602C7.25895 11.83 7.34295 12.014 7.47095 12.154C7.60295 12.294 7.79495 12.364 8.04695 12.364C8.29895 12.364 8.48895 12.294 8.61695 12.154C8.74895 12.014 8.83495 11.83 8.87495 11.602C8.91495 11.374 8.93495 11.092 8.93495 10.756Z" fill="#2C2C2C"/>
<path d="M25.3336 18.088V17.572L27.3496 14.68H28.1776V17.494H28.7356V18.088H28.1776V19H27.5056V18.088H25.3336ZM27.5356 15.376L26.1196 17.494H27.5356V15.376Z" fill="#2C2C2C"/>
<path d="M16 11H12.5" stroke="#2C2C2C"/>
</svg>
