<svg width="22" height="22" viewBox="0 0 22 22" fill="none" xmlns="http://www.w3.org/2000/svg">
<g clip-path="url(#clip0_669_23061)">
<path d="M12.4981 8.76557C11.9309 8.76557 11.4914 9.20508 11.4914 9.74771C11.4914 10.2903 11.9309 10.7299 12.4981 10.7299C13.0162 10.7299 13.4557 10.2903 13.4557 9.74771C13.4557 9.20508 13.0162 8.76557 12.4981 8.76557ZM5.62313 8.76557C5.05594 8.76557 4.61644 9.20508 4.61644 9.74771C4.61644 10.2903 5.05594 10.7299 5.62313 10.7299C6.14121 10.7299 6.58072 10.2903 6.58072 9.74771C6.58072 9.20508 6.14121 8.76557 5.62313 8.76557Z" fill="#EAECF0"/>
<path d="M20.3791 6.89758C19.2431 5.33387 17.6051 4.20717 15.7385 3.70562V3.70807C15.3186 3.24156 14.8448 2.81187 14.3144 2.42883C10.295 -0.493042 4.65257 0.398253 1.71842 4.41767C-0.646087 7.6833 -0.545417 12.0759 1.86574 15.1967L1.88539 18.4525C1.88539 18.5311 1.89766 18.6096 1.92222 18.6833C1.9531 18.7817 2.00308 18.873 2.0693 18.9521C2.13551 19.0311 2.21667 19.0964 2.30812 19.144C2.39957 19.1917 2.49951 19.2209 2.60225 19.2299C2.70498 19.2388 2.80847 19.2275 2.90682 19.1965L6.0153 18.2168C6.83784 18.509 7.6874 18.6759 8.53204 18.7226L8.51976 18.7324C10.7075 20.3259 13.5753 20.8047 16.205 19.9355L19.3258 20.952C19.4044 20.9766 19.4854 20.9913 19.5689 20.9913C20.0035 20.9913 20.3546 20.6402 20.3546 20.2056V16.9154C22.5178 13.9788 22.5742 9.92013 20.3791 6.89758ZM6.35905 16.4735L6.0644 16.3507L3.6336 17.1119L3.60905 14.5583L3.41262 14.3373C1.33539 11.8034 1.19789 8.15227 3.14253 5.47347C5.50949 2.22749 10.047 1.51053 13.2832 3.85294C16.5291 6.21254 17.2486 10.7427 14.9037 13.969C12.9369 16.6674 9.41597 17.6643 6.35905 16.4735ZM18.7586 16.0561L18.5622 16.3016L18.5867 18.8552L16.1805 18.0449L15.8858 18.1677C14.5108 18.6784 13.045 18.7201 11.6872 18.3395L11.6823 18.3371C13.5484 17.7648 15.1785 16.6025 16.3278 15.0248C18.2037 12.4393 18.5082 9.19089 17.418 6.42124L17.4327 6.43106C17.9974 6.8362 18.5155 7.342 18.955 7.95339C20.7376 10.3989 20.6369 13.7284 18.7586 16.0561Z" fill="#EAECF0"/>
<path d="M9.06063 8.76557C8.49344 8.76557 8.05394 9.20508 8.05394 9.74771C8.05394 10.2903 8.49344 10.7299 9.06063 10.7299C9.57871 10.7299 10.0182 10.2903 10.0182 9.74771C10.0182 9.20508 9.57871 8.76557 9.06063 8.76557Z" fill="#EAECF0"/>
</g>
<defs>
<clipPath id="clip0_669_23061">
<rect width="22" height="22" fill="white"/>
</clipPath>
</defs>
</svg>
