<svg width="24" height="24" viewBox="0 0 24 24" fill="none" xmlns="http://www.w3.org/2000/svg">
<g clip-path="url(#clip0_1070_43920)">
<path d="M21.1762 6.01607L15.4119 0.251786C15.2512 0.0910715 15.0342 0 14.8065 0H3.42794C2.95384 0 2.5708 0.383036 2.5708 0.857143V23.1429C2.5708 23.617 2.95384 24 3.42794 24H20.5708C21.0449 24 21.4279 23.617 21.4279 23.1429V6.62411C21.4279 6.39643 21.3369 6.17679 21.1762 6.01607ZM19.4512 7.01786H14.4101V1.97679L19.4512 7.01786ZM19.4994 22.0714H4.49937V1.92857H12.5887V7.71429C12.5887 8.01265 12.7072 8.2988 12.9182 8.50978C13.1291 8.72076 13.4153 8.83929 13.7137 8.83929H19.4994V22.0714ZM9.77616 11.175C9.72527 11.0571 9.61009 10.9821 9.48152 10.9821H8.54402C8.36723 10.9821 8.22259 11.1268 8.22259 11.3036V18.5893C8.22259 18.7661 8.36723 18.9107 8.54402 18.9107H9.26991C9.44669 18.9107 9.59134 18.7661 9.59134 18.5893V13.8777L11.3806 17.9009C11.406 17.9577 11.4474 18.0059 11.4997 18.0397C11.552 18.0735 11.613 18.0913 11.6753 18.0911H12.3208C12.4467 18.0911 12.5619 18.0161 12.6154 17.9009L14.4047 13.867V18.5893C14.4047 18.7661 14.5494 18.9107 14.7262 18.9107H15.4547C15.6315 18.9107 15.7762 18.7661 15.7762 18.5893V11.3036C15.7762 11.1268 15.6315 10.9821 15.4547 10.9821H14.5253C14.3967 10.9821 14.2815 11.0571 14.2306 11.175L12.0047 16.2911L9.77616 11.175Z" fill="#8C8C8C"/>
</g>
<defs>
<clipPath id="clip0_1070_43920">
<rect width="24" height="24" fill="white"/>
</clipPath>
</defs>
</svg>
