<svg width="22" height="22" viewBox="0 0 22 22" fill="none" xmlns="http://www.w3.org/2000/svg">
<g clip-path="url(#clip0_669_23057)">
<path d="M21.1353 13.7954L19.5271 12.4204C19.6032 11.9539 19.6425 11.4776 19.6425 11.0012C19.6425 10.5249 19.6032 10.0485 19.5271 9.58203L21.1353 8.20703C21.2566 8.10319 21.3435 7.96487 21.3842 7.81049C21.425 7.6561 21.4179 7.49296 21.3637 7.34275L21.3416 7.27891C20.8988 6.04147 20.2358 4.89435 19.3847 3.89297L19.3405 3.84141C19.2372 3.71999 19.0996 3.63272 18.9457 3.59108C18.7919 3.54944 18.629 3.55539 18.4786 3.60815L16.4824 4.31775C15.7458 3.71373 14.9233 3.23739 14.0344 2.90346L13.6489 0.816406C13.6199 0.659367 13.5437 0.514894 13.4305 0.402182C13.3174 0.28947 13.1726 0.213854 13.0155 0.185379L12.9492 0.173103C11.6699 -0.0577009 10.3244 -0.0577009 9.04515 0.173103L8.97886 0.185379C8.8217 0.213854 8.67694 0.28947 8.56379 0.402182C8.45063 0.514894 8.37446 0.659367 8.34537 0.816406L7.95743 2.91328C7.07568 3.24728 6.25455 3.72337 5.52662 4.32266L3.51569 3.60815C3.36533 3.55497 3.20236 3.5488 3.04842 3.59047C2.89448 3.63213 2.75686 3.71966 2.65386 3.84141L2.60966 3.89297C1.75948 4.89506 1.09661 6.04199 0.652739 7.27891L0.630641 7.34275C0.52015 7.64967 0.610998 7.99342 0.858989 8.20703L2.48689 9.59676C2.41078 10.0584 2.37394 10.5298 2.37394 10.9988C2.37394 11.4702 2.41078 11.9416 2.48689 12.4008L0.858989 13.7905C0.737684 13.8944 0.650865 14.0327 0.610075 14.1871C0.569285 14.3414 0.576459 14.5046 0.630641 14.6548L0.652739 14.7186C1.09716 15.9561 1.75519 17.0979 2.60966 18.1046L2.65386 18.1561C2.75711 18.2776 2.89474 18.3648 3.04858 18.4065C3.20243 18.4481 3.36529 18.4422 3.51569 18.3894L5.52662 17.6749C6.25832 18.2765 7.07595 18.7528 7.95743 19.0843L8.34537 21.1811C8.37446 21.3382 8.45063 21.4827 8.56379 21.5954C8.67694 21.7081 8.8217 21.7837 8.97886 21.8122L9.04515 21.8244C10.3361 22.0565 11.6582 22.0565 12.9492 21.8244L13.0155 21.8122C13.1726 21.7837 13.3174 21.7081 13.4305 21.5954C13.5437 21.4827 13.6199 21.3382 13.6489 21.1811L14.0344 19.0941C14.9229 18.761 15.7501 18.2831 16.4824 17.6798L18.4786 18.3894C18.629 18.4426 18.792 18.4487 18.9459 18.4071C19.0998 18.3654 19.2375 18.2779 19.3405 18.1561L19.3847 18.1046C20.2391 17.0954 20.8972 15.9561 21.3416 14.7186L21.3637 14.6548C21.4742 14.3528 21.3833 14.009 21.1353 13.7954ZM17.7838 9.87176C17.8451 10.2425 17.8771 10.6231 17.8771 11.0037C17.8771 11.3843 17.8451 11.7648 17.7838 12.1356L17.6217 13.1202L19.4559 14.6892C19.1778 15.3298 18.8268 15.9361 18.4099 16.4963L16.1313 15.6885L15.3603 16.322C14.7735 16.8032 14.1204 17.1814 13.4132 17.4465L12.4777 17.7977L12.0382 20.1794C11.3448 20.2579 10.6446 20.2579 9.95118 20.1794L9.51167 17.7927L8.58354 17.4367C7.88377 17.1715 7.2331 16.7934 6.65118 16.3146L5.88019 15.6787L3.58689 16.4939C3.16948 15.9316 2.82082 15.3251 2.54091 14.6867L4.3947 13.103L4.23511 12.1209C4.17618 11.755 4.14426 11.3769 4.14426 11.0037C4.14426 10.628 4.17372 10.2523 4.23511 9.8865L4.3947 8.90435L2.54091 7.32065C2.81836 6.6798 3.16948 6.07578 3.58689 5.5135L5.88019 6.32868L6.65118 5.69275C7.2331 5.21395 7.88377 4.83583 8.58354 4.57065L9.51412 4.21953L9.95363 1.83292C10.6436 1.75435 11.3483 1.75435 12.0407 1.83292L12.4802 4.21462L13.4157 4.56574C14.1204 4.83092 14.776 5.20904 15.3628 5.69029L16.1338 6.32377L18.4123 5.51596C18.8297 6.07824 19.1784 6.68471 19.4583 7.3231L17.6242 8.89208L17.7838 9.87176ZM10.9996 6.43672C8.61301 6.43672 6.67819 8.37154 6.67819 10.7581C6.67819 13.1448 8.61301 15.0796 10.9996 15.0796C13.3862 15.0796 15.321 13.1448 15.321 10.7581C15.321 8.37154 13.3862 6.43672 10.9996 6.43672ZM12.9443 12.7028C12.6892 12.9586 12.3861 13.1614 12.0523 13.2996C11.7186 13.4378 11.3608 13.5087 10.9996 13.5081C10.2655 13.5081 9.57551 13.2209 9.05497 12.7028C8.79918 12.4477 8.59634 12.1446 8.45813 11.8109C8.31992 11.4771 8.24905 11.1194 8.24961 10.7581C8.24961 10.024 8.53689 9.33404 9.05497 8.8135C9.57551 8.29297 10.2655 8.00815 10.9996 8.00815C11.7338 8.00815 12.4237 8.29297 12.9443 8.8135C13.2 9.06856 13.4029 9.37168 13.5411 9.70542C13.6793 10.0392 13.7502 10.3969 13.7496 10.7581C13.7496 11.4923 13.4623 12.1823 12.9443 12.7028Z" fill="#8E99AA"/>
</g>
<defs>
<clipPath id="clip0_669_23057">
<rect width="22" height="22" fill="white"/>
</clipPath>
</defs>
</svg>
