<svg width="22" height="22" viewBox="0 0 22 22" fill="none" xmlns="http://www.w3.org/2000/svg">
<g clip-path="url(#clip0_669_23049)">
<path d="M6.875 21.3105L11 10.3105M11 10.3105V7.56055M11 10.3105L15.125 21.3105" stroke="#D9D9D9" stroke-width="1.5" stroke-linecap="round" stroke-linejoin="round"/>
<path d="M16.248 0.68457C17.3826 1.43712 18.3132 2.45874 18.957 3.65832C19.6008 4.8579 19.9377 6.19815 19.9377 7.55957C19.9377 8.92099 19.6008 10.2612 18.957 11.4608C18.3132 12.6604 17.3826 13.682 16.248 14.4346" stroke="#D9D9D9" stroke-width="1.5" stroke-linecap="round" stroke-linejoin="round"/>
<path d="M15.125 4.19385C16.0062 5.09321 16.4997 6.30213 16.4997 7.56122C16.4997 8.82031 16.0062 10.0292 15.125 10.9286" stroke="#D9D9D9" stroke-width="1.5" stroke-linecap="round" stroke-linejoin="round"/>
<path d="M5.75214 0.68457C4.61763 1.43712 3.68698 2.45874 3.0432 3.65832C2.39941 4.8579 2.0625 6.19815 2.0625 7.55957C2.0625 8.92099 2.39941 10.2612 3.0432 11.4608C3.68698 12.6604 4.61763 13.682 5.75214 14.4346" stroke="#D9D9D9" stroke-width="1.5" stroke-linecap="round" stroke-linejoin="round"/>
<path d="M6.87593 4.19385C5.99519 5.09343 5.50195 6.30227 5.50195 7.56122C5.50195 8.82017 5.99519 10.029 6.87593 10.9286" stroke="#D9D9D9" stroke-width="1.5" stroke-linecap="round" stroke-linejoin="round"/>
<path d="M7.90625 18.5605H14.0938" stroke="#D9D9D9" stroke-width="1.5" stroke-linecap="round" stroke-linejoin="round"/>
</g>
<defs>
<clipPath id="clip0_669_23049">
<rect width="22" height="22" fill="white"/>
</clipPath>
</defs>
</svg>
